<svg xmlns="http://www.w3.org/2000/svg" version="1.1" xmlns:xlink="http://www.w3.org/1999/xlink" xmlns:svgjs="http://svgjs.dev/svgjs" width="1440" height="560" preserveAspectRatio="none" viewBox="0 0 1440 560"><g mask="url(&quot;#SvgjsMask1002&quot;)" fill="none"><rect width="1440" height="560" x="0" y="0" fill="#0e2a47"></rect><path d="M720 692.83C837.95 700.61 965.14 692.25 1051.3 611.3 1139.29 528.61 1173.9 399.85 1159.31 280 1146.09 171.44 1061.73 92.63 979.35 20.65 904.28-44.94 819.08-92.84 720-103.83 606.51-116.41 479.82-121.51 395.95-44.05 310.23 35.13 298.03 163.48 304.45 280 310.47 389.38 352.05 493.01 429.78 570.22 507.23 647.17 611.06 685.62 720 692.83" fill="#1c538e"></path><path d="M720 547.12C796.32 552.16 878.62 546.75 934.37 494.37 991.3 440.86 1013.7 357.55 1004.26 280 995.7 209.75 941.12 158.76 887.82 112.18 839.24 69.75 784.11 38.75 720 31.64 646.56 23.5 564.59 20.2 510.32 70.32 454.86 121.56 446.96 204.61 451.12 280 455.01 350.77 481.92 417.83 532.21 467.79 582.32 517.58 649.51 542.46 720 547.12" fill="#2774c6"></path><path d="M720 401.42C754.69 403.71 792.1 401.25 817.44 377.44 843.32 353.12 853.5 315.25 849.21 280 845.32 248.07 820.51 224.89 796.28 203.72 774.2 184.43 749.14 170.34 720 167.11 686.62 163.41 649.36 161.91 624.69 184.69 599.48 207.98 595.89 245.73 597.78 280 599.55 312.17 611.78 342.65 634.64 365.36 657.42 387.99 687.96 399.3 720 401.42" fill="#488fdb"></path></g><defs><mask id="SvgjsMask1002"><rect width="1440" height="560" fill="#ffffff"></rect></mask></defs></svg>